<svg width="36" height="36" viewBox="0 0 36 36" xmlns="http://www.w3.org/2000/svg" focusable="false">
	<path fill="currentColor" fill-rule="evenodd" clip-rule="evenodd" d="M10 5h16a3 3 0 0 1 3 3v20a3 3 0 0 1-3 3H10a3 3 0 0 1-3-3V8a3 3 0 0 1 3-3Zm16 2H10a1 1 0 0 0-1 1v20a1 1 0 0 0 1 1h16a1 1 0 0 0 1-1V8a1 1 0 0 0-1-1ZM16 21v2h-4v-2h4Zm8-8v-2H12v2h12Zm0 3v2H12v-2h12Zm-5.95 6.879a1 1 0 0 1 1.415 0l.707.707 2.12-2.122a1 1 0 1 1 1.415 1.414l-2.828 2.829a1 1 0 0 1-1.414 0l-1.414-1.414a1 1 0 0 1 0-1.414Z"></path>
</svg>